<svg xmlns="http://www.w3.org/2000/svg" width="41.15" height="41.15" viewBox="0 0 41.15 41.15"><defs><style>.a{fill:#fff;}</style></defs><g transform="translate(0 0.001)"><g transform="translate(0 -0.001)"><path class="a" d="M145,15.323a7.832,7.832,0,0,0,9.211-11.162A7.832,7.832,0,0,0,143.618.918h0a7.832,7.832,0,0,0,1.38,14.4Zm-.815-13.34h0a6.626,6.626,0,1,1,6.217,11.7,6.626,6.626,0,1,1-6.217-11.7Z" transform="translate(-128.253 0.001)"/><path class="a" d="M181.415,47.158h1.229v1.226a1.387,1.387,0,0,0,1.384,1.386h1.141a1.388,1.388,0,0,0,1.386-1.386V47.158h1.227a1.388,1.388,0,0,0,1.387-1.386V44.63a1.388,1.388,0,0,0-1.387-1.386h-1.227V42.017a1.388,1.388,0,0,0-1.386-1.386h-1.141a1.387,1.387,0,0,0-1.384,1.386v1.226h-1.229a1.388,1.388,0,0,0-1.387,1.386v1.141a1.388,1.388,0,0,0,1.387,1.386Zm-.181-2.528a.183.183,0,0,1,.181-.181h1.832a.6.6,0,0,0,.6-.6V42.017a.182.182,0,0,1,.179-.181h1.141a.183.183,0,0,1,.181.181v1.829a.6.6,0,0,0,.6.6h1.829a.183.183,0,0,1,.181.181v1.141a.183.183,0,0,1-.181.181h-1.829a.6.6,0,0,0-.6.6v1.829a.183.183,0,0,1-.181.181h-1.141a.182.182,0,0,1-.179-.181V46.555a.6.6,0,0,0-.6-.6h-1.832a.183.183,0,0,1-.181-.181Z" transform="translate(-165.559 -37.365)"/><path class="a" d="M38.805,167.174v-4.964h1.616a.6.6,0,0,0,.6-.6V149.529a2.315,2.315,0,0,0-4.55-.6H31.042a.6.6,0,1,0,0,1.206h5.352V161H20.1v-8.423a2.453,2.453,0,0,1,2.45-2.45h5.711a.6.6,0,0,0,0-1.206H22.547a3.66,3.66,0,0,0-3.656,3.655v.163h-7.2a2.463,2.463,0,0,0-1.508-2.209l-.051-.018L4.63,148.8v-3.1a2.315,2.315,0,1,0-4.63,0v5.64a.6.6,0,0,0,1.206,0v-5.64a1.109,1.109,0,1,1,2.219,0v12.488a.6.6,0,0,0,.6.6H18.891V161H1.206v-6.885a.6.6,0,1,0-1.206,0v7.488a.6.6,0,0,0,.6.6H2.836v4.964a2.947,2.947,0,1,0,1.206,0v-1.912H37.6v1.912a2.947,2.947,0,1,0,1.206,0Zm-.1-18.753a1.11,1.11,0,0,1,1.11,1.108V161H37.6V149.529A1.109,1.109,0,0,1,38.708,148.421ZM9.742,151.658a1.249,1.249,0,0,1,.742,1.086H4.63v-2.683ZM4.63,157.58v-3.631H18.891v3.631Zm.551,12.478a1.741,1.741,0,1,1-1.741-1.741A1.743,1.743,0,0,1,5.181,170.058Zm-1.139-6V162.21H37.6v1.847ZM38.2,171.8a1.741,1.741,0,1,1,1.741-1.741A1.743,1.743,0,0,1,38.2,171.8Z" transform="translate(0 -131.856)"/></g></g></svg>