<svg xmlns="http://www.w3.org/2000/svg" width="36.422" height="37.17" viewBox="0 0 36.422 37.17"><defs><style>.a{fill:#fff;}</style></defs><g transform="translate(-15.933 -10.999)"><path class="a" d="M47.458,33.65a.455.455,0,0,0-.428-.3l-6.653-.018,2.812-3.74a11.617,11.617,0,0,0,2.391-7.753,11.786,11.786,0,0,0-3.419-7.567,11.191,11.191,0,0,0-15.809,0,11.6,11.6,0,0,0-1.028,15.319l2.824,3.757-6.439,0a.455.455,0,0,0-.425.293L15.963,47.551a.455.455,0,0,0,.425.618H51.9a.455.455,0,0,0,.43-.606Zm-.753.6L48.3,38.806l-6.144.013-.736-4.578Zm-20.651-5.21A10.686,10.686,0,0,1,27,14.911a10.28,10.28,0,0,1,14.52,0A10.876,10.876,0,0,1,44.671,21.9a10.705,10.705,0,0,1-2.21,7.144l-8.2,10.913Zm1.068,18.215H17.049l2.207-5.771L27.5,41.48Zm6.55-3.138-.006,3.138H28.035l.407-6.2a.44.44,0,0,0-.122-.334.449.449,0,0,0-.332-.137H19.605l2.418-6.329,6.81,0,5.06,6.73a.455.455,0,0,0,.728,0l5.074-6.749.8,0,.822,5.119a.464.464,0,0,0,.449.392h0l6.85-.024L50,43.665l-15.871,0A.454.454,0,0,0,33.672,44.12Zm.9,3.138.018-2.683L50.3,44.57v-.119l.956,2.807Z" transform="translate(0)"/><path class="a" d="M137.983,25.252c-.277.228-.548.47-.807.721a.455.455,0,1,0,.634.653c.24-.233.492-.459.75-.671a.455.455,0,1,0-.578-.7Z" transform="translate(-111.919 -13.076)"/><path class="a" d="M88.387,54.651a.455.455,0,1,0-.726-.549,13.506,13.506,0,0,0-2.706,7.282,12.683,12.683,0,0,0,.409,4.105.455.455,0,0,0,.88-.233,11.774,11.774,0,0,1-.381-3.812A12.6,12.6,0,0,1,88.387,54.651Z" transform="translate(-63.762 -39.667)"/><path class="a" d="M196.841,108h-2.352c-.251,0-.531.128-.531.379v2.655h-2.427c-.251,0-.531.128-.531.379v2.124a.6.6,0,0,0,.531.531h2.427V116.5a.6.6,0,0,0,.531.531h2.352c.251,0,.379-.28.379-.531v-2.427H199.8c.251,0,.379-.28.379-.531v-2.124a.336.336,0,0,0-.379-.379H197.22v-2.655A.336.336,0,0,0,196.841,108Zm2.427,3.945v1.214h-2.427c-.251,0-.531.128-.531.379v2.579h-1.441v-2.579a.336.336,0,0,0-.379-.379H191.91v-1.214h2.579c.251,0,.379-.28.379-.531v-2.5h1.441v2.5a.6.6,0,0,0,.531.531Z" transform="translate(-161.787 -89.643)"/><path class="a" d="M163.352,61.1a8.384,8.384,0,0,0-16.52-1.979.455.455,0,1,0,.886.21,7.428,7.428,0,1,1-.132,2.868.455.455,0,1,0-.9.127A8.382,8.382,0,0,0,163.352,61.1Z" transform="translate(-120.829 -38.59)"/></g></svg>